<svg xmlns="http://www.w3.org/2000/svg" viewBox="0 0 188 188" width="188" height="188"><defs></defs><g transform="matrix(1,0,0,1,-6,-5.6)">
<g>
	<g>
		<path d="M43.4,72.8L 43.4,72.4 L 43.4,71.8 L 43.2,71 L 43,70.4 L 42.8,69.8 L 42.6,69 L 42.4,68.4 L 42.2,67.6 L 42,67 L 41.8,66.4 L 41.6,66 L 41.2,65.4 L 40.8,64.6 L 40.6,64 L 40.2,63.4 L 39.8,62.8 L 39.4,62.2 L 39,61.8 L 38.8,61.2 L 38.6,60.6 L 38.2,60 L 37.6,59.4 L 37.2,58.8 L 36.8,58.4 L 36.6,57.8 L 36.4,57.2 L 36,56.6 L 35.8,55.8 L 35.6,55.4 L 35.4,54.8 L 35.2,54.6 L 35.2,54.2 L 35,54 L 34.8,53.8 L 34.2,53.2 L 33.2,52.6 L 32.4,51.8 L 31.6,51 L 30.8,50.4 L 30.2,49.6 L 30,49.2 L 29.4,48.8 L 28.8,48.2 L 28.2,47.4 L 27.6,47 L 27,46.4 L 26.6,46.2 L 26,45.8 L 25.4,45.2 L 25,44.6 L 24.2,43.8 L 23.4,43 L 22.6,42 L 22,41.2 L 21.4,40.4 L 21,39.6 L 20.4,38.4 L 20,37.6 L 19.6,37.2 L 19.4,36.6 L 19.2,35.8 L 18.8,35.2 L 18.8,34.6 L 18.6,34 L 18.6,33.6 L 18.6,33.2 L 18.6,32.8 L 18.4,32.6 L 18.4,32.4 L 18.4,32 L 18.2,31.6 L 18,31.2 L 17.8,30.8 L 17.6,30.2 L 17.4,29.8 L 17.4,29 L 17.4,28.6 L 17,28.2 L 17,27.6 L 16.8,27.2 L 16.6,26.6 L 16.6,26 L 16.4,25 L 16.4,23.8 L 16.4,23 L 16.4,22.4 L 16.4,21.6 L 16.4,20.8 L 16.4,19.8 L 16.6,19.2 L 16.8,18.4 L 17.2,18 L 17.4,17.4 L 17.6,16.8 L 18.2,16 L 18.6,15.4 L 19,14.6 L 19.4,14.2 L 19.8,13.8 L 20.2,13.4 L 20.6,13 L 21,12.6 L 21.6,12.2 L 22,11.6 L 22.4,11 L 23,10.2 L 23.4,9.6 L 23.6,9.2 L 24.2,8.6 L 25,7.8 L 26,7.2 L 27.2,6.4 L 27.8,6 L 28.8,5.8 L 29.4,5.6 L 30.2,5.6 L 31,5.6 L 31.8,5.6 L 32.6,5.6 L 33,5.6 L 33.4,5.6 L 34.2,5.8 L 34.8,6 L 35.6,6 L 36.4,6.2 L 37.4,6.2 L 38.4,6.4 L 39.6,6.6 L 40.6,6.6 L 42,6.8 L 43.2,6.8 L 44.2,7 L 44.6,7 L 45.4,7.6 L 46.2,8 L 46.4,8.4 L 46.6,8.8 L 47,9.2 L 47.2,9.4 L 47.6,9.8 L 48.6,10.2 L 49.2,10.4 L 49.8,10.6 L 50.6,10.8 L 50.8,11 L 51.2,11.2 L 51.4,11.6 L 51.6,12 L 51.6,12.4 L 51.8,12.8 L 52,13 L 52.2,13 L 52.4,13 L 53,12.6 L 53.8,12 L 54.4,11.4 L 54.8,11 L 55.4,10.6 L 56.2,10 L 56.8,9.4 L 57.6,8.8 L 58.4,8.6 L 59.4,8.2 L 60.4,7.8 L 61,7.6 L 61.4,7.2 L 62,7 L 62.8,7 L 63.4,6.8 L 64.4,6.8 L 65.4,6.4 L 66.2,6.2 L 67,6 L 68.2,6 L 69.2,6 L 70,6 L 70.8,6 L 71.8,6 L 72.8,6.2 L 73,6.6 L 73.6,7 L 74.2,7.2 L 74.4,7.6 L 75.4,7.8 L 76,8.2 L 76.8,8.4 L 77.6,8.6 L 77.8,8.8 L 78.6,9.2 L 79,9.6 L 79.4,10 L 79.6,10.2 L 80.2,10.6 L 80.4,11 L 81,11.4 L 81.4,12 L 82.2,13 L 82.8,14 L 83.4,14.4 L 83.6,14.8 L 83.8,15.2 L 84.2,15.8 L 84.4,16.6 L 84.8,17.2 L 85.2,18.2 L 86,19.4 L 86.6,20.6 L 86.8,22 L 87.2,23.4 L 87.2,24.4 L 87.4,25.2 L 87.4,26 L 87.4,26.8 L 87.4,28 L 87.6,28.8 L 87.6,29.8 L 87.6,30.8 L 87.4,31.4 L 87,32.2 L 86.2,33.4 L 85.4,34.2 L 85,34.8 L 84.6,35.4 L 84.6,36.2 L 84.4,37 L 84.2,37.6 L 83.8,38.4 L 83.2,39.2 L 82.8,39.8 L 82.2,40.6 L 82,41.2 L 81.4,42 L 81,43.2 L 80.6,44 L 79.8,45.6 L 79.4,46.6 L 79,47.2 L 78.4,47.6 L 78,48.2 L 77,48.8 L 75.6,49.6 L 74.6,50.6 L 73.2,51.8 L 72,53 L 70.8,54 L 69,55.4 L 68,56.4 L 67.2,57.2 L 66.2,58.2 L 65.8,59.2 L 65.4,60 L 64.8,61.2 L 64.4,62.2 L 63.8,63.6 L 63,65.4 L 62.4,67.2 L 61.8,68.8 L 61.2,70.2 L 60.8,71.2 L 60.6,72.4 L 60.6,73.4 L 60.6,73.8 L 60.4,73.4 L 60.4,74.2 L 60.4,75.2 L 60.4,77 L 60.4,78.6 L 60.2,79.8 L 59.8,81 L 59.6,81.4 L 59.2,81.8 L 58.4,82 L 57,82.2 L 54.6,82.6 L 52.6,82.8 L 49.8,83 L 48,83 L 46.8,83 L 46,82.8 L 45.4,82.4 L 44.6,82.2 L 44.2,82 L 43.8,81.6 L 43.4,81.2 L 43,80.2 L 42.8,79 L 42.8,78.2 L 42.8,77.2 L 42.8,75.6 L 42.6,74.4 L 42.6,73.4 L 42.6,72.8 L 42.6,72.2 L 42.6,71.8 L 42.6,71.4 L 42.6,70.2 L 42.6,70 L 42.6,69.6 L 42.6,68.8 L 42.2,67.8 L 42.2,67.4 L 42,67.2 L 42,67 L 41.8,66.6 L 41.8,66.4 " transform="matrix(2.640449438,0,0,2.439276486,-37.303370787,-8.05994832)" fill="#000000" stroke="#000000" stroke-width="2"/>
	</g>
</g></g></svg>